<svg width="16" height="15" viewBox="0 0 16 15" fill="none" xmlns="http://www.w3.org/2000/svg">
<g clip-path="url(#clip0_1032_400)">
<path d="M3.98139 0.0484488C2.22697 0.335917 0.797787 1.57299 0.247378 3.27843C-0.450014 5.43281 0.331815 7.8585 2.53345 10.3844C3.76874 11.7991 5.27923 13.1105 7.26507 14.4897L8 15L8.73493 14.4897C10.7208 13.1105 12.2313 11.7991 13.4665 10.3844C15.6682 7.8585 16.45 5.43281 15.7526 3.27843C15.124 1.33721 13.3383 0.00323035 11.3619 0C10.1891 0 9.12273 0.413436 8.2502 1.20801C8.12193 1.32429 8.0094 1.42119 8 1.42119C7.9906 1.42119 7.87807 1.32429 7.7498 1.20801C7.04307 0.562015 6.16739 0.151807 5.24796 0.0355287C4.90395 -0.0096911 4.29725 -0.00323036 3.98139 0.0484488ZM5.4012 1.09496C6.32376 1.28876 7.10247 1.83462 7.7498 2.73902C7.87807 2.91667 7.9906 3.06525 8 3.06525C8.0094 3.06525 8.12193 2.91667 8.2502 2.73902C9.07267 1.58915 10.0765 1.03359 11.3369 1.03036C13.1789 1.03036 14.7081 2.4031 14.9771 4.29586C15.0271 4.65439 14.9958 5.38436 14.9145 5.77519C14.6893 6.84429 14.1295 7.93929 13.1976 9.14079C12.766 9.69314 11.5839 10.9334 10.9709 11.4729C10.1766 12.1738 9.36353 12.8101 8.42847 13.469L8 13.7726L7.5684 13.469C6.63649 12.8101 5.82339 12.1738 5.02905 11.4729C4.41609 10.9334 3.23397 9.69314 2.8024 9.14079C1.87045 7.93929 1.31067 6.84429 1.0855 5.77519C1.00419 5.38436 0.972914 4.65439 1.02295 4.29586C1.2231 2.90051 2.12064 1.74742 3.40284 1.25C3.98139 1.02713 4.77573 0.96576 5.4012 1.09496Z" fill="#1C1A1A"/>
</g>
<defs>
<clipPath id="clip0_1032_400">
<rect width="16" height="15" fill="white"/>
</clipPath>
</defs>
</svg>
