<svg width="456" height="154" viewBox="0 0 456 154" fill="none" xmlns="http://www.w3.org/2000/svg">
<path d="M315.061 4.04083C301.211 12.1187 300.287 15.773 299.179 66.1636C298.256 106.553 297.886 111.169 294.747 114.823L291.238 118.862H303.796C316.169 118.862 317.745 120.289 314.606 116.635C311.651 113.366 309.89 108.284 310.629 87.7046C311.183 67.7023 311.922 62.7017 315.43 55.7778C323.002 40.776 340.915 37.891 351.996 49.8155C357.351 55.5854 357.351 55.5854 358.274 86.743L359.198 117.901L367.323 118.478C375.264 119.055 375.264 119.055 372.309 114.631C370.278 111.746 369.355 105.976 369.355 95.7825C369.17 87.897 368.431 75.0108 367.693 67.3176C366.4 55.7778 365.107 52.1235 360.86 47.5076C358.09 44.4303 353.104 41.353 349.595 40.776C346.271 40.199 343.501 39.2373 343.501 38.8527C343.501 38.468 345.532 36.16 348.117 33.4674C351.442 30.0055 352.734 26.5435 352.734 21.3506C352.55 3.65617 331.866 -5.96036 315.061 4.04083ZM341.839 9.81075C354.396 18.4656 349.964 33.2751 333.528 38.0834C323.371 40.9683 316.354 45.7766 311.737 52.7005L308.228 58.2781L308.782 39.045C309.521 17.6963 311.737 12.1187 320.417 8.07977C328.542 4.42548 334.821 4.81015 341.839 9.81075Z" fill="url(#paint0_linear_1053_13)"/>
<path d="M126.687 38.0802C104.895 45.0041 92.1527 72.1227 100.648 93.4714C110.251 116.936 139.983 127.706 160.112 114.82C176.548 104.242 175.44 79.4312 158.081 71.5457C152.356 69.0454 152.541 69.0454 163.067 68.8531C173.039 68.8531 173.593 68.6607 173.593 64.0448C173.593 45.1964 148.478 31.3486 126.687 38.0802ZM153.279 45.1964C156.973 48.6583 159.374 53.0819 160.112 57.6979L161.22 65.0064H140.168C128.533 65.0064 118.007 64.2371 116.714 63.2755C115.237 62.3138 114.683 60.0058 115.421 57.1209C118.007 46.5427 126.871 40.0035 138.875 40.0035C145.892 40.0035 148.847 41.1574 153.279 45.1964ZM155.68 74.2383C172.855 82.1239 173.963 101.165 157.896 110.589C142.938 119.436 125.578 114.628 118.561 100.203C114.683 92.3174 111.728 72.315 114.129 69.8147C116.714 66.9297 146.631 70.1994 155.68 74.2383Z" fill="url(#paint1_linear_1053_13)"/>
<path d="M187.219 44.5024C191.281 47.3873 193.894 59.6231 193.894 82.7028C193.894 104.628 193.105 113.533 188.03 118.859C187.227 119.702 191.309 118.861 198.326 118.861C211.781 118.167 213.316 121.236 208.712 115.1C205.643 110.494 204.421 105.975 203.682 77.7022L202.574 43.852H194.079C189.093 43.852 185.741 43.733 187.219 44.5024Z" fill="url(#paint2_linear_1053_13)"/>
<circle cx="194.9" cy="29.1576" r="7.67325" fill="url(#paint3_linear_1053_13)"/>
<path d="M239.515 38.4656C229.173 41.3506 221.602 50.1978 221.602 59.2373C221.602 69.2385 227.326 75.9701 240.069 80.3937C245.609 82.317 250.41 84.8173 250.78 85.7789C250.964 86.7406 245.24 93.2798 237.853 100.396C228.804 109.051 225.11 113.667 226.403 115.013C227.511 116.167 233.421 117.898 239.699 119.052C259.09 122.706 277.373 115.59 283.467 102.319C289.93 87.8946 282.359 75.7777 265.184 73.4698C260.383 72.7004 256.32 71.5465 255.766 70.7771C255.397 70.2001 260.383 64.0456 266.846 57.314C273.495 50.3901 278.85 44.2355 278.85 43.4662C278.85 41.3506 272 37 253.181 36.35C248.5 36.35 243.393 37.5039 239.515 38.4656ZM267.585 42.1199C270.909 43.2739 273.31 45.0048 272.941 45.5818C272.571 46.3512 266.846 52.5057 260.013 59.045L247.64 70.9695L241.177 68.0845C229.912 63.2762 230.466 48.6591 241.916 42.5045C247.64 39.4273 259.829 39.2349 267.585 42.1199ZM269.247 89.2409C273.31 92.1258 274.603 99.6267 272.202 106.358C269.432 113.667 247.456 118.283 234.713 114.052C230.651 112.705 231.02 112.128 243.024 99.4344C256.505 85.3943 261.306 83.471 269.247 89.2409Z" fill="url(#paint4_linear_1053_13)"/>
<path d="M408.693 38.2714C396.874 41.9257 391.149 58.0815 398.167 68.4673C400.752 72.5063 400.752 72.8909 396.505 74.4296C388.749 77.5069 382.285 87.5081 382.285 96.3553C382.47 109.049 390.965 117.512 406.477 119.82C417.558 121.551 429.192 118.089 433.809 111.742C437.133 107.51 437.687 107.318 437.687 110.588C437.687 116.165 441.38 118.858 449.506 118.858C456.339 118.858 456.524 118.666 453.199 116.165C450.06 113.665 449.506 110.203 448.767 84.8154C448.213 69.0443 448.119 61.3835 445.628 52.5039C441.981 42.9677 434.307 41.433 424.945 38.0791C420.496 36.8291 415.892 36.8291 415.892 36.8291C415.892 36.8291 412.432 36.9007 408.693 38.2714ZM429.746 45.1953C433.994 48.0803 437.687 56.9275 437.687 64.0437C437.687 68.275 436.579 68.4673 420.882 69.8136C405.923 70.9676 405.149 73.6607 400.545 67.5221C397.775 63.6755 395.941 55.2449 400.545 49.1063C409.753 38.3637 419.958 38.6561 429.746 45.1953ZM436.764 87.1234C436.764 103.856 432.147 111.934 421.066 115.011C407.031 118.858 395.212 109.626 395.212 94.6243C395.212 84.2384 401.676 77.1222 412.387 75.7759C416.634 75.1989 422.174 74.2372 424.76 73.8526C436.21 71.9293 436.764 72.5063 436.764 87.1234Z" fill="url(#paint5_linear_1053_13)"/>
<path d="M33.2411 40.3772C20.314 45.7624 9.4183 60.7642 9.23363 73.458C9.23363 85.9595 18.2826 99.9997 30.2863 105.577L37.3038 109.039L29.3629 110.386C9.78764 113.463 0 121.156 0 133.273C0 151.737 22.7147 158.468 39.7046 145.005L45.2448 140.774L51.7083 145.39C55.2171 147.89 61.1266 150.775 64.8201 151.929C78.4858 156.353 92.3363 146.544 92.3363 132.696C92.3363 124.041 88.8275 118.463 81.4406 115.194C72.5763 111.539 64.6354 114.232 45.2448 127.695C30.1016 138.273 26.2235 140.197 19.3906 140.197C10.5263 140.197 5.54018 136.542 5.54018 130.388C5.54018 120.002 14.0351 115.578 41.5513 111.155C64.0814 107.693 76.8238 99.2303 81.4406 84.9979C83.472 78.2663 82.918 65.5725 80.3325 58.8409C78.9505 55.2425 79.4501 55.5149 82.8711 55.246C86 55 85.8808 55.6437 85.9404 50.8219C86 46 86 46.5 86 46.5C79.8614 50.9241 73.6632 49.1074 64.266 43.0698C53.9244 38.0692 41.5513 36.9152 33.2411 40.3772ZM56.1404 44.0314C65.9281 47.8781 71.8376 65.7648 69.2522 83.8439C65.7434 108.847 37.6732 113.847 26.4082 91.5371C22.3454 83.2669 22.3454 64.4185 26.7775 54.9943C31.9483 43.6468 43.9521 39.0309 56.1404 44.0314ZM79.2245 124.041C89.0122 137.119 78.8552 152.506 63.3427 148.082C56.8791 146.159 48.0149 139.235 48.0149 135.965C48.0149 135.196 50.9696 130.965 54.6631 126.734C60.2032 120.387 62.604 119.04 68.3288 119.04C73.869 119.04 76.2698 120.194 79.2245 124.041Z" fill="url(#paint6_linear_1053_13)"/>
<defs>
<linearGradient id="paint0_linear_1053_13" x1="333.983" y1="111.131" x2="357.927" y2="21.562" gradientUnits="userSpaceOnUse">
<stop stop-color="#C12A29"/>
<stop offset="1" stop-color="#DF5530"/>
</linearGradient>
<linearGradient id="paint1_linear_1053_13" x1="136.98" y1="114.687" x2="150.383" y2="49.8088" gradientUnits="userSpaceOnUse">
<stop stop-color="#C12A29"/>
<stop offset="1" stop-color="#DF5530"/>
</linearGradient>
<linearGradient id="paint2_linear_1053_13" x1="199.342" y1="114.169" x2="225.69" y2="68.7114" gradientUnits="userSpaceOnUse">
<stop stop-color="#C12A29"/>
<stop offset="1" stop-color="#DF5530"/>
</linearGradient>
<linearGradient id="paint3_linear_1053_13" x1="195.141" y1="22.5156" x2="192.94" y2="37.3617" gradientUnits="userSpaceOnUse">
<stop stop-color="#DF5530"/>
<stop offset="1" stop-color="#C12A29"/>
</linearGradient>
<linearGradient id="paint4_linear_1053_13" x1="254.687" y1="114.384" x2="270.124" y2="50.7351" gradientUnits="userSpaceOnUse">
<stop stop-color="#C12A29"/>
<stop offset="1" stop-color="#E55C30"/>
</linearGradient>
<linearGradient id="paint5_linear_1053_13" x1="419.941" y1="114.657" x2="433.607" y2="50.3509" gradientUnits="userSpaceOnUse">
<stop stop-color="#C12A29"/>
<stop offset="1" stop-color="#DF5530"/>
</linearGradient>
<linearGradient id="paint6_linear_1053_13" x1="47.6184" y1="145.3" x2="67.8545" y2="57.6443" gradientUnits="userSpaceOnUse">
<stop stop-color="#C12A29"/>
<stop offset="1" stop-color="#DF5530"/>
</linearGradient>
</defs>
</svg>
