<svg width="23" height="22" viewBox="0 0 23 22" fill="none" xmlns="http://www.w3.org/2000/svg">
<path d="M0.5 8C0.5 7.72386 0.723858 7.5 1 7.5H22C22.2761 7.5 22.5 7.72386 22.5 8V18C22.5 19.933 20.933 21.5 19 21.5H4C2.067 21.5 0.5 19.933 0.5 18V8Z" stroke="#1C1A1A"/>
<path fill-rule="evenodd" clip-rule="evenodd" d="M9.71875 1H13.1566C14.8134 1 16.1566 2.34315 16.1566 4V8.94629H17.1566V4C17.1566 1.79086 15.3657 0 13.1566 0H9.71875C7.50961 0 5.71875 1.79086 5.71875 4V8.94629H6.71875V4C6.71875 2.34315 8.0619 1 9.71875 1Z" fill="#1C1A1A"/>
</svg>
