<svg width="24" height="22" viewBox="0 0 24 22" fill="none" xmlns="http://www.w3.org/2000/svg">
<path d="M5.97209 0.0710602C3.34046 0.49268 1.19668 2.30706 0.371066 4.80836C-0.675022 7.96813 0.497723 11.5258 3.80017 15.2304C5.65311 17.3053 7.91885 19.2287 10.8976 21.2515L12 22L13.1024 21.2515C16.0812 19.2287 18.3469 17.3053 20.1998 15.2304C23.5023 11.5258 24.675 7.96813 23.6289 4.80836C22.686 1.96124 20.0075 0.00473976 17.0428 1.90735e-06C15.2837 1.90735e-06 13.6841 0.606375 12.3753 1.77175C12.1829 1.94229 12.0141 2.08441 12 2.08441C11.9859 2.08441 11.8171 1.94229 11.6247 1.77175C10.5646 0.824291 9.25109 0.222652 7.87194 0.0521107C7.35593 -0.0142117 6.44588 -0.00473595 5.97209 0.0710602ZM8.1018 1.60594C9.48564 1.89018 10.6537 2.69078 11.6247 4.01723C11.8171 4.27778 11.9859 4.4957 12 4.4957C12.0141 4.4957 12.1829 4.27778 12.3753 4.01723C13.609 2.33075 15.1148 1.51594 17.0053 1.5112C19.7683 1.5112 22.0621 3.52455 22.4656 6.3006C22.5406 6.82644 22.4937 7.89707 22.3718 8.47028C22.034 10.0383 21.1943 11.6443 19.7964 13.4065C19.149 14.2166 17.3759 16.0357 16.4564 16.8269C15.2649 17.8549 14.0453 18.7881 12.6427 19.7545L12 20.1998L11.3526 19.7545C9.95473 18.7881 8.73508 17.8549 7.54357 16.8269C6.62414 16.0357 4.85095 14.2166 4.2036 13.4065C2.80568 11.6443 1.966 10.0383 1.62825 8.47028C1.50628 7.89707 1.45937 6.82644 1.53443 6.3006C1.83465 4.25409 3.18096 2.56288 5.10426 1.83333C5.97209 1.50646 7.1636 1.41645 8.1018 1.60594Z" fill="#1C1A1A"/>
</svg>
