<svg width="142" height="50" viewBox="0 0 142 50" fill="none" xmlns="http://www.w3.org/2000/svg">
<path d="M98.2621 1.2143C93.9423 3.64306 93.6543 4.74178 93.3087 19.8926C93.0207 32.0363 92.9055 33.4242 91.9264 34.5229L90.832 35.7373H94.7486C98.6077 35.7373 98.6653 35.7373 97.6861 34.6386C96.7646 33.6555 96.6494 32.5568 96.8797 26.3693C97.0525 20.3552 97.2829 18.8517 98.3773 16.7699C100.739 12.2593 106.326 11.3919 109.782 14.9772C111.452 16.7121 111.452 16.7121 111.74 26.0801L112.028 35.4482L114.562 35.6216C117.039 35.7951 117.039 35.7951 116.117 34.4651C115.484 33.5977 115.196 31.8629 115.196 28.798C115.138 26.4271 114.908 22.5526 114.677 20.2395C114.274 16.7699 113.871 15.6712 112.546 14.2833C111.682 13.3581 110.127 12.4328 109.033 12.2593C107.996 12.0859 107.132 11.7967 107.132 11.6811C107.132 11.5654 107.766 10.8715 108.572 10.0619C109.609 9.02101 110.012 7.98012 110.012 6.41877C109.954 1.09865 103.503 -1.79273 98.2621 1.2143ZM106.614 2.94913C110.53 5.55136 109.148 10.0041 104.022 11.4498C100.854 12.3172 98.6653 13.7629 97.2253 15.8447L96.131 17.5216L96.3038 11.7389C96.5342 5.32005 97.2253 3.64306 99.9324 2.42868C102.467 1.32996 104.425 1.44561 106.614 2.94913Z" fill="url(#paint0_linear_683_245)"/>
<path d="M60.0762 6.65118C59.0395 6.99815 59.1547 9.4269 60.1338 10.2365C61.2282 11.1617 63.3593 10.1208 63.3593 8.67514C63.3593 6.82466 61.8617 5.89942 60.0762 6.65118Z" fill="url(#paint1_linear_683_245)"/>
<path d="M39.5119 11.4508C32.7155 13.5326 28.7412 21.6863 31.3907 28.1051C34.3858 35.1601 43.6589 38.3984 49.9371 34.524C55.0632 31.3435 54.7176 23.8837 49.3035 21.5128C47.518 20.761 47.5756 20.761 50.8586 20.7032C53.9689 20.7032 54.1417 20.6454 54.1417 19.2575C54.1417 13.5904 46.3084 9.42686 39.5119 11.4508ZM47.806 13.5904C48.9579 14.6313 49.7067 15.9614 49.9371 17.3492L50.2826 19.5467H43.7165C40.0879 19.5467 36.8049 19.3154 36.4017 19.0262C35.9409 18.7371 35.7681 18.0432 35.9985 17.1757C36.8049 13.9952 39.5695 12.0291 43.3134 12.0291C45.5021 12.0291 46.4236 12.3761 47.806 13.5904ZM48.5547 22.3224C53.9113 24.6933 54.2569 30.4182 49.2459 33.2518C44.5805 35.9118 39.1664 34.4662 36.9777 30.1291C35.7681 27.7582 34.8466 21.7441 35.5953 20.9924C36.4017 20.1249 45.7325 21.108 48.5547 22.3224Z" fill="url(#paint2_linear_683_245)"/>
<path d="M74.7041 11.5656C71.4787 12.433 69.1172 15.093 69.1172 17.8109C69.1172 20.818 70.9027 22.8419 74.8769 24.1719C76.6048 24.7502 78.1024 25.502 78.2176 25.7911C78.2752 26.0803 76.4896 28.0464 74.1858 30.186C71.3635 32.7882 70.2115 34.1761 70.6147 34.5809C70.9603 34.9279 72.8034 35.4483 74.7617 35.7953C80.8094 36.894 86.5116 34.7544 88.4123 30.7643C90.4282 26.4272 88.0667 22.7841 82.7102 22.0902C81.2126 21.8589 79.9455 21.5119 79.7727 21.2806C79.6575 21.1071 81.2126 19.2566 83.2285 17.2327C85.302 15.1509 86.9724 13.3004 86.9724 13.0691C86.9724 12.433 81.2126 10.8716 78.9663 10.9295C77.8144 10.9873 75.9137 11.2764 74.7041 11.5656ZM83.4589 12.6643C84.4957 13.0112 85.2444 13.5317 85.1292 13.7052C85.0141 13.9365 83.2285 15.787 81.0974 17.7531L77.2384 21.3384L75.2225 20.471C71.7091 19.0253 71.8819 14.6304 75.4529 12.7799C77.2384 11.8547 81.0398 11.7969 83.4589 12.6643ZM83.9773 26.832C85.2444 27.6994 85.6476 29.9547 84.8989 31.9787C84.0349 34.1761 77.1808 35.564 73.2066 34.2918C71.9395 33.887 72.0547 33.7135 75.7985 29.8969C80.0031 25.6755 81.5006 25.0972 83.9773 26.832Z" fill="url(#paint3_linear_683_245)"/>
<path d="M127.463 11.5078C123.777 12.6065 121.991 17.464 124.18 20.5867C124.986 21.8011 124.986 21.9167 123.662 22.3794C121.242 23.3046 119.227 26.3116 119.227 28.9717C119.284 32.7883 121.934 35.3327 126.772 36.0266C130.228 36.5471 133.856 35.5062 135.296 33.5979C136.333 32.3257 136.506 32.2679 136.506 33.2509C136.506 34.9279 137.658 35.7375 140.192 35.7375C142.323 35.7375 142.381 35.6797 141.344 34.9279C140.365 34.1762 140.192 33.1353 139.962 25.502C139.789 20.7602 139.386 16.4231 138.982 15.787C137.658 13.4739 135.527 12.0282 132.532 11.45C130.804 11.1608 129.127 11.0957 129.127 11.0957C129.127 11.0957 128.629 11.0957 127.463 11.5078ZM134.029 13.5896C135.354 14.457 136.506 17.1171 136.506 19.2567C136.506 20.5289 136.16 20.5867 131.264 20.9915C126.599 21.3385 125.965 21.2806 125.274 20.3554C124.41 19.1988 124.18 16.2496 124.756 14.6305C125.677 12.2017 130.976 11.6234 134.029 13.5896ZM136.218 26.196C136.218 31.227 134.778 33.6557 131.322 34.581C126.945 35.7375 123.258 32.9618 123.258 28.4512C123.258 25.3286 125.274 23.1889 128.615 22.7841C129.94 22.6107 131.668 22.3215 132.474 22.2059C136.045 21.6276 136.218 21.8011 136.218 26.196Z" fill="url(#paint4_linear_683_245)"/>
<path d="M10.3675 12.0867C6.33571 13.7058 2.93746 18.2164 2.87987 22.033C2.87987 25.7918 5.70213 30.0132 9.44596 31.6902L11.6347 32.7311L9.15797 33.1359C3.05266 34.0611 0 36.3742 0 40.0173C0 45.5688 7.08447 47.5927 12.3834 43.5448L14.1113 42.2726L16.1272 43.6605C17.2216 44.4122 19.0647 45.2796 20.2167 45.6266C24.4789 46.9566 28.7987 44.0074 28.7987 39.8438C28.7987 37.2416 27.7043 35.5646 25.4004 34.5815C22.6357 33.4828 20.1591 34.2924 14.1113 38.3403C9.38836 41.5208 8.17882 42.0991 6.04772 42.0991C3.28305 42.0991 1.72792 41.0004 1.72792 39.1499C1.72792 36.0272 4.3774 34.6972 12.9594 33.3672C19.9863 32.3263 23.9605 29.7819 25.4004 25.5026C26.034 23.4787 25.8612 19.6621 25.0548 17.6381C24.7093 16.8285 24.882 16.655 25.9764 16.7707C27.1283 16.9442 27.3587 16.655 27.5315 15.0359C27.7043 13.2432 26.9555 12.5493 26.2068 13.7637C25.6308 14.7467 23.3269 14.3998 20.0439 12.8962C16.8184 11.3927 12.9594 11.0458 10.3675 12.0867ZM17.5096 13.1854C20.5622 14.3419 22.4054 19.7199 21.599 25.1557C20.5046 32.6732 11.7499 34.1768 8.23642 27.4688C6.96928 24.9822 6.96928 19.3151 8.35161 16.4815C9.96434 13.0697 13.7082 11.6819 17.5096 13.1854ZM24.7093 37.2416C27.7619 41.1739 24.5941 45.8001 19.7559 44.47C17.74 43.8918 14.9753 41.81 14.9753 40.8269C14.9753 40.5956 15.8969 39.3234 17.0488 38.0512C18.7767 36.1429 19.5255 35.7381 21.311 35.7381C23.0389 35.7381 23.7877 36.0851 24.7093 37.2416Z" fill="url(#paint5_linear_683_245)"/>
<path d="M58.6329 13.6472C59.9 14.5146 60.476 17.9264 60.476 24.8657C60.476 31.4581 59.9576 34.4073 58.5753 35.2747C58.1721 35.506 59.6696 35.7373 61.8583 35.7373C65.7749 35.7373 65.8325 35.7373 64.8534 34.6386C63.9894 33.7133 63.759 31.8629 63.5287 23.3622L63.1831 13.1846H60.5336C58.9785 13.1846 58.1721 13.4159 58.6329 13.6472Z" fill="url(#paint6_linear_683_245)"/>
<ellipse cx="71.1412" cy="47.7215" rx="1.77792" ry="1.78404" fill="url(#paint7_linear_683_245)"/>
<defs>
<linearGradient id="paint0_linear_683_245" x1="104.369" y1="36.8317" x2="102.111" y2="-3.88058" gradientUnits="userSpaceOnUse">
<stop stop-color="#690502"/>
<stop offset="0.781183" stop-color="#EA0000"/>
<stop offset="1" stop-color="white"/>
</linearGradient>
<linearGradient id="paint1_linear_683_245" x1="61.4483" y1="10.7155" x2="61.2473" y2="5.92725" gradientUnits="userSpaceOnUse">
<stop stop-color="#690502"/>
<stop offset="0.781183" stop-color="#EA0000"/>
<stop offset="1" stop-color="white"/>
</linearGradient>
<linearGradient id="paint2_linear_683_245" x1="42.9096" y1="36.9539" x2="41.6724" y2="8.15503" gradientUnits="userSpaceOnUse">
<stop stop-color="#690502"/>
<stop offset="0.781183" stop-color="#EA0000"/>
<stop offset="1" stop-color="white"/>
</linearGradient>
<linearGradient id="paint3_linear_683_245" x1="79.5949" y1="36.8523" x2="78.149" y2="8.18172" gradientUnits="userSpaceOnUse">
<stop stop-color="#690502"/>
<stop offset="0.781183" stop-color="#EA0000"/>
<stop offset="1" stop-color="white"/>
</linearGradient>
<linearGradient id="paint4_linear_683_245" x1="131.152" y1="36.9277" x2="129.89" y2="8.34234" gradientUnits="userSpaceOnUse">
<stop stop-color="#690502"/>
<stop offset="0.781183" stop-color="#EA0000"/>
<stop offset="1" stop-color="white"/>
</linearGradient>
<linearGradient id="paint5_linear_683_245" x1="15.0802" y1="47.0045" x2="13.1943" y2="7.71674" gradientUnits="userSpaceOnUse">
<stop stop-color="#690502"/>
<stop offset="0.781183" stop-color="#EA0000"/>
<stop offset="1" stop-color="white"/>
</linearGradient>
<linearGradient id="paint6_linear_683_245" x1="62.1059" y1="36.4279" x2="58.774" y2="11.0953" gradientUnits="userSpaceOnUse">
<stop stop-color="#690502"/>
<stop offset="0.781183" stop-color="#EA0000"/>
<stop offset="1" stop-color="white"/>
</linearGradient>
<linearGradient id="paint7_linear_683_245" x1="71.2253" y1="45.8282" x2="71.0614" y2="49.8989" gradientUnits="userSpaceOnUse">
<stop stop-color="#690502"/>
<stop offset="0.781183" stop-color="#EA0000"/>
<stop offset="1" stop-color="white"/>
</linearGradient>
</defs>
</svg>
