<svg width="" height="75" viewBox="0 0 667 75" fill="none" xmlns="http://www.w3.org/2000/svg">
<path d="M35.8798 44.5999H58.2478C57.6718 47.2239 56.7438 49.6879 55.4638 51.9919C54.2478 54.2959 52.6798 56.3439 50.7598 58.1359C48.8398 59.9279 46.5358 61.3359 43.8478 62.3599C41.2238 63.3199 38.2478 63.7999 34.9198 63.7999C30.1838 63.7999 25.8958 62.6799 22.0558 60.4399C18.2158 58.1999 15.1438 55.0959 12.8398 51.1279C10.5998 47.1599 9.47984 42.5839 9.47984 37.3999C9.47984 32.1519 10.5998 27.5759 12.8398 23.6719C15.1438 19.7039 18.2158 16.5999 22.0558 14.3599C25.8958 12.1199 30.1838 10.9999 34.9198 10.9999C40.0398 10.9999 44.4878 12.0239 48.2638 14.0719C52.0398 16.0559 54.9838 18.8399 57.0958 22.4239L62.8558 17.1439C60.9358 14.0079 58.5678 11.3839 55.7518 9.27194C52.9998 7.15994 49.8638 5.55994 46.3438 4.47194C42.8878 3.38394 39.0798 2.83994 34.9198 2.83994C30.0558 2.83994 25.5438 3.70394 21.3838 5.43194C17.2238 7.09594 13.6078 9.49594 10.5358 12.6319C7.46384 15.7039 5.06384 19.3519 3.33584 23.5759C1.67184 27.7999 0.839844 32.4079 0.839844 37.3999C0.839844 42.3919 1.67184 46.9999 3.33584 51.2239C5.06384 55.4479 7.46384 59.1279 10.5358 62.2639C13.6078 65.3359 17.2238 67.7359 21.3838 69.4639C25.5438 71.1279 30.0558 71.9599 34.9198 71.9599C40.0398 71.9599 44.5838 71.0319 48.5518 69.1759C52.5838 67.2559 55.9758 64.6639 58.7278 61.3999C61.4798 58.1359 63.5598 54.4239 64.9678 50.2639C66.3758 46.0399 67.0798 41.5919 67.0798 36.9199H35.8798V44.5999Z" fill="#D31217"/>
<path d="M83.6293 70.9999H117.517V63.3199H83.6293V70.9999ZM83.6293 11.4799H117.517V3.79994H83.6293V11.4799ZM83.6293 38.3599H115.597V30.6799H83.6293V38.3599ZM79.1173 3.79994V70.9999H87.2773V3.79994H79.1173Z" fill="#D31217"/>
<path d="M131.899 3.79994V70.9999H140.059V3.79994H131.899Z" fill="#D31217"/>
<path d="M157.926 50.6479L151.398 55.0639C152.87 58.0079 154.758 60.7919 157.062 63.4159C159.43 65.9759 162.15 68.0559 165.222 69.6559C168.358 71.1919 171.75 71.9599 175.398 71.9599C178.086 71.9599 180.646 71.5119 183.078 70.6159C185.574 69.7199 187.782 68.4399 189.702 66.7759C191.686 65.1119 193.222 63.0959 194.31 60.7279C195.462 58.3599 196.038 55.7039 196.038 52.7599C196.038 49.6879 195.494 47.0639 194.406 44.8879C193.318 42.6479 191.91 40.7599 190.182 39.2239C188.518 37.6239 186.694 36.3119 184.71 35.2879C182.726 34.2639 180.838 33.4319 179.046 32.7919C175.142 31.4479 172.038 30.1039 169.734 28.7599C167.494 27.3519 165.894 25.8799 164.934 24.3439C163.974 22.7439 163.494 21.0159 163.494 19.1599C163.494 16.9839 164.326 15.0319 165.99 13.3039C167.654 11.5119 170.31 10.6159 173.958 10.6159C176.582 10.6159 178.79 11.1279 180.582 12.1519C182.438 13.1759 184.006 14.4879 185.286 16.0879C186.566 17.6879 187.622 19.3199 188.454 20.9839L195.462 16.9519C194.374 14.5839 192.87 12.3439 190.95 10.2319C189.03 8.05594 186.694 6.29594 183.942 4.95194C181.254 3.54394 178.086 2.83994 174.438 2.83994C170.662 2.83994 167.302 3.60794 164.358 5.14394C161.414 6.61594 159.11 8.66394 157.446 11.2879C155.782 13.9119 154.95 16.8879 154.95 20.2159C154.95 23.2879 155.526 25.8799 156.678 27.9919C157.894 30.1039 159.43 31.8959 161.286 33.3679C163.142 34.7759 165.094 35.9599 167.142 36.9199C169.19 37.8159 171.046 38.5519 172.71 39.1279C175.27 40.0239 177.67 41.0479 179.91 42.1999C182.214 43.2879 184.07 44.7279 185.478 46.5199C186.886 48.3119 187.59 50.7119 187.59 53.7199C187.59 56.7919 186.502 59.3199 184.326 61.3039C182.15 63.2879 179.27 64.2799 175.686 64.2799C172.998 64.2799 170.598 63.7039 168.486 62.5519C166.374 61.3999 164.454 59.7999 162.726 57.7519C161.062 55.7039 159.462 53.3359 157.926 50.6479Z" fill="#D31217"/>
<path d="M212.536 38.3599H258.616V30.6799H212.536V38.3599ZM253.144 3.79994V70.9999H261.304V3.79994H253.144ZM208.024 3.79994V70.9999H216.184V3.79994H208.024Z" fill="#D31217"/>
<path d="M283.081 50.8399H318.601L315.721 43.1599H285.961L283.081 50.8399ZM300.649 18.9679L312.169 46.0399L312.937 47.9599L322.729 70.9999H331.849L300.649 0.439941L269.449 70.9999H278.569L288.553 47.3839L289.321 45.6559L300.649 18.9679Z" fill="#D31217"/>

</svg>
