<svg width="332" height="72" viewBox="0 0 332 72" fill="none" xmlns="http://www.w3.org/2000/svg">
<path d="M35.88 44.6H58.248C57.672 47.224 56.744 49.688 55.464 51.992C54.248 54.296 52.68 56.344 50.76 58.136C48.84 59.928 46.536 61.336 43.848 62.36C41.224 63.32 38.248 63.8 34.92 63.8C30.184 63.8 25.896 62.68 22.056 60.44C18.216 58.2 15.144 55.096 12.84 51.128C10.6 47.16 9.47997 42.584 9.47997 37.4C9.47997 32.152 10.6 27.576 12.84 23.672C15.144 19.704 18.216 16.6 22.056 14.36C25.896 12.12 30.184 11 34.92 11C40.04 11 44.488 12.024 48.264 14.072C52.04 16.056 54.984 18.84 57.096 22.424L62.856 17.144C60.936 14.008 58.568 11.384 55.752 9.272C53 7.16 49.864 5.56 46.344 4.472C42.888 3.384 39.08 2.84 34.92 2.84C30.056 2.84 25.544 3.704 21.384 5.432C17.224 7.096 13.608 9.496 10.536 12.632C7.46397 15.704 5.06397 19.352 3.33597 23.576C1.67197 27.8 0.839966 32.408 0.839966 37.4C0.839966 42.392 1.67197 47 3.33597 51.224C5.06397 55.448 7.46397 59.128 10.536 62.264C13.608 65.336 17.224 67.736 21.384 69.464C25.544 71.128 30.056 71.96 34.92 71.96C40.04 71.96 44.584 71.032 48.552 69.176C52.584 67.256 55.976 64.664 58.728 61.4C61.48 58.136 63.56 54.424 64.968 50.264C66.376 46.04 67.08 41.592 67.08 36.92H35.88V44.6Z" fill="white"/>
<path d="M83.6295 71H117.517V63.32H83.6295V71ZM83.6295 11.48H117.517V3.8H83.6295V11.48ZM83.6295 38.36H115.597V30.68H83.6295V38.36ZM79.1175 3.8V71H87.2775V3.8H79.1175Z" fill="white"/>
<path d="M131.899 3.8V71H140.059V3.8H131.899Z" fill="white"/>
<path d="M157.926 50.648L151.398 55.064C152.87 58.008 154.758 60.792 157.062 63.416C159.43 65.976 162.15 68.056 165.222 69.656C168.358 71.192 171.75 71.96 175.398 71.96C178.086 71.96 180.646 71.512 183.078 70.616C185.574 69.72 187.782 68.44 189.702 66.776C191.686 65.112 193.222 63.096 194.31 60.728C195.462 58.36 196.038 55.704 196.038 52.76C196.038 49.688 195.494 47.064 194.406 44.888C193.318 42.648 191.91 40.76 190.182 39.224C188.518 37.624 186.694 36.312 184.71 35.288C182.726 34.264 180.838 33.432 179.046 32.792C175.142 31.448 172.038 30.104 169.734 28.76C167.494 27.352 165.894 25.88 164.934 24.344C163.974 22.744 163.494 21.016 163.494 19.16C163.494 16.984 164.326 15.032 165.99 13.304C167.654 11.512 170.31 10.616 173.958 10.616C176.582 10.616 178.79 11.128 180.582 12.152C182.438 13.176 184.006 14.488 185.286 16.088C186.566 17.688 187.622 19.32 188.454 20.984L195.462 16.952C194.374 14.584 192.87 12.344 190.95 10.232C189.03 8.056 186.694 6.296 183.942 4.952C181.254 3.544 178.086 2.84 174.438 2.84C170.662 2.84 167.302 3.608 164.358 5.144C161.414 6.616 159.11 8.664 157.446 11.288C155.782 13.912 154.95 16.888 154.95 20.216C154.95 23.288 155.526 25.88 156.678 27.992C157.894 30.104 159.43 31.896 161.286 33.368C163.142 34.776 165.094 35.96 167.142 36.92C169.19 37.816 171.046 38.552 172.71 39.128C175.27 40.024 177.67 41.048 179.91 42.2C182.214 43.288 184.07 44.728 185.478 46.52C186.886 48.312 187.59 50.712 187.59 53.72C187.59 56.792 186.502 59.32 184.326 61.304C182.15 63.288 179.27 64.28 175.686 64.28C172.998 64.28 170.598 63.704 168.486 62.552C166.374 61.4 164.454 59.8 162.726 57.752C161.062 55.704 159.462 53.336 157.926 50.648Z" fill="white"/>
<path d="M212.536 38.36H258.616V30.68H212.536V38.36ZM253.144 3.8V71H261.304V3.8H253.144ZM208.024 3.8V71H216.184V3.8H208.024Z" fill="white"/>
<path d="M283.081 50.84H318.601L315.721 43.16H285.961L283.081 50.84ZM300.649 18.968L312.169 46.04L312.937 47.96L322.729 71H331.849L300.649 0.440002L269.449 71H278.569L288.553 47.384L289.321 45.656L300.649 18.968Z" fill="white"/>
</svg>
