<svg width="110" height="110" viewBox="0 0 110 110" fill="none" xmlns="http://www.w3.org/2000/svg">
<path d="M49.8435 3.6738C40.7557 4.66208 32.3982 7.82029 25.1365 12.9765C13.6853 21.1191 6.16581 33.3437 3.93144 47.4804C3.39433 50.9394 3.39433 59.0176 3.95292 62.5195C7.19706 83.2734 22.0857 99.7949 42.1951 104.951C46.2771 106.004 48.9842 106.369 53.6033 106.498C67.8045 106.906 81.1678 101.621 91.2225 91.6308C95.6053 87.2695 98.4197 83.3379 101.191 77.666C106.713 66.4511 107.959 54.1621 104.822 41.959C103.963 38.5644 102.931 35.8574 101.084 32.1191C93.5643 16.8867 79.535 6.68161 62.4119 3.97458C59.8338 3.56638 52.4002 3.37302 49.8435 3.6738ZM59.3182 10.5273C90.0623 13.6211 108.517 46.1484 95.3904 74.0566C94.3807 76.2265 92.2537 79.9219 92.0174 79.9219C91.9744 79.9219 90.9861 79.084 89.8475 78.0527C88.6873 77.0429 86.8396 75.4961 85.701 74.6582C75.0447 66.6875 61.1658 63.1211 48.0174 64.9902C37.4685 66.4726 28.2947 70.791 20.1521 78.0742C19.0135 79.084 18.0252 79.9219 17.9822 79.9219C17.9178 79.9219 17.3807 79.1269 16.8006 78.1386C7.19706 62.1758 8.3787 42.2597 19.8084 27.4785C28.9822 15.6191 44.3221 9.02341 59.3182 10.5273Z" fill="#1C1A1A"/>
<path d="M51.8841 17.4023C47.4798 18.1113 43.6341 20.1094 40.39 23.3965C37.6185 26.1895 35.8138 29.3906 34.8685 33.2148C34.2884 35.5781 34.3529 40.4121 34.9759 42.7539C36.0501 46.6641 37.597 49.3926 40.2826 52.1211C42.431 54.291 43.3978 55 45.89 56.2461C53.6459 60.1348 62.9056 58.7168 69.222 52.6582C72.015 50.0156 73.9486 46.6855 75.0228 42.7754C75.7103 40.3262 75.6888 35.4063 75.0228 32.8711C73.9271 28.8535 72.4232 26.2539 69.5013 23.3105C66.6009 20.4102 63.9798 18.8848 60.0482 17.832C58.0716 17.2949 53.9466 17.0801 51.8841 17.4023Z" fill="#1C1A1A"/>
</svg>
