<svg width="47" height="27" viewBox="0 0 47 27" fill="none" xmlns="http://www.w3.org/2000/svg">
<path d="M26.7225 0.0619202C26.1344 0.214328 25.7852 0.398488 24.7836 1.10972C23.6257 1.91622 23.396 2.20198 23.396 2.83701C23.396 3.62445 23.2674 3.51015 28.9186 7.42195L34.037 10.9654H18.0755C2.25196 10.9654 2.10493 10.9654 1.60872 11.0924C0.928732 11.2702 0.331443 11.7148 0.129283 12.1974C0.00982514 12.4832 -0.0177421 12.7753 0.00982513 13.6199C0.0373923 14.5407 0.0649596 14.7185 0.239552 14.9725C0.469279 15.3281 1.01143 15.7218 1.50764 15.8869C1.86602 16.0139 2.19682 16.0139 17.9836 16.0457L34.0829 16.0774L28.937 19.6336C23.2674 23.5518 23.3868 23.4502 23.396 24.2186C23.4052 24.8282 23.6809 25.1584 24.9122 25.9903C26.1987 26.8666 26.5295 27 27.4668 27C28.0365 26.9936 28.2387 26.9682 28.6154 26.8285C29.2311 26.5999 45.7427 14.381 46 14C46.2573 13.619 46.2849 12.881 46 12.5C45.7059 12.0936 29.0565 0.303233 28.5327 0.138124C28.0549 -0.00793302 27.1451 -0.0460354 26.7225 0.0619202Z" fill="white"/>
</svg>
