<svg width="47" height="27" viewBox="0 0 47 27" fill="none" xmlns="http://www.w3.org/2000/svg">
<path d="M20.2775 26.9381C20.8656 26.7857 21.2148 26.6015 22.2164 25.8903C23.3743 25.0838 23.604 24.798 23.604 24.163C23.604 23.3755 23.7326 23.4899 18.0814 19.5781L12.963 16.0346H28.9245C44.748 16.0346 44.8951 16.0346 45.3913 15.9076C46.0713 15.7298 46.6686 15.2852 46.8707 14.8026C46.9902 14.5168 47.0177 14.2247 46.9902 13.3801C46.9626 12.4593 46.935 12.2815 46.7604 12.0275C46.5307 11.6719 45.9886 11.2782 45.4924 11.1131C45.134 10.9861 44.8032 10.9861 29.0164 10.9543L12.9171 10.9226L18.063 7.36638C23.7326 3.44823 23.6132 3.54983 23.604 2.78144C23.5948 2.17181 23.3191 1.84159 22.0878 1.0097C20.8013 0.133357 20.4705 0 19.5332 0C18.9635 0.00635033 18.7613 0.0317516 18.3846 0.171459C17.7689 0.400071 1.25729 12.619 1 13C0.742706 13.381 0.715139 14.119 1 14.5C1.29405 14.9064 17.9435 26.6968 18.4673 26.8619C18.9451 27.0079 19.8549 27.046 20.2775 26.9381Z" fill="white"/>
</svg>
