<svg width="20" height="24" viewBox="0 0 20 24" fill="none" xmlns="http://www.w3.org/2000/svg">
<path d="M6.93591 0.400501C4.23861 1.48373 1.96517 4.5013 1.92664 7.05463C1.92664 9.56927 3.81475 12.3934 6.31938 13.5153L7.78363 14.2117L6.12672 14.4825C2.04224 15.1015 0 16.649 0 19.0862C0 22.8002 4.73954 24.1542 8.28456 21.4461L9.44054 20.595L10.7892 21.5235C11.5213 22.0264 12.7544 22.6067 13.525 22.8388C16.3765 23.7286 19.2664 21.7556 19.2664 18.9702C19.2664 17.2293 18.5343 16.1073 16.993 15.4497C15.1434 14.7146 13.4865 15.2562 9.44054 17.9643C6.28085 20.0921 5.47166 20.479 4.04595 20.479C2.19637 20.479 1.15598 19.7439 1.15598 18.5059C1.15598 16.4168 2.92849 15.527 8.66989 14.6372C13.3709 13.9409 16.0297 12.2387 16.993 9.37584C17.4168 8.0218 17.3012 5.46847 16.7618 4.11444C16.5306 3.57282 16.6462 3.45676 17.3783 3.53413C18.149 3.65019 18.3031 3.45676 18.4187 2.37353C18.5343 1.17424 18.0334 0.709995 17.5324 1.52242C17.1471 2.18009 15.6058 1.94797 13.4094 0.942116C11.2516 -0.0637407 8.66989 -0.295862 6.93591 0.400501ZM11.714 1.13555C13.7562 1.90929 14.9893 5.50716 14.4498 9.14372C13.7177 14.173 7.8607 15.1789 5.51019 10.6912C4.66247 9.02766 4.66247 5.23635 5.58726 3.3407C6.66618 1.05818 9.17081 0.129693 11.714 1.13555ZM16.5306 17.2293C18.5728 19.86 16.4535 22.9549 13.2168 22.0651C11.8681 21.6782 10.0185 20.2855 10.0185 19.6278C10.0185 19.4731 10.6351 18.622 11.4057 17.7709C12.5617 16.4942 13.0626 16.2234 14.2571 16.2234C15.4131 16.2234 15.9141 16.4555 16.5306 17.2293Z" fill="#FFA621"/>
</svg>
