<svg width="311" height="141" viewBox="0 0 311 141" fill="none" xmlns="http://www.w3.org/2000/svg">
<path d="M201.761 17.795C194.472 21.8792 193.986 23.7268 193.403 49.204C192.917 69.6247 192.722 71.9585 191.07 73.8061L189.224 75.8481H195.832C202.344 75.8481 202.441 75.8481 200.789 74.0006C199.234 72.3475 199.04 70.4999 199.428 60.095C199.72 49.9819 200.109 47.4537 201.955 43.953C205.94 36.3681 215.367 34.9095 221.198 40.9385C224.017 43.8557 224.017 43.8557 224.503 59.6088L224.989 75.3619L229.265 75.6537C233.444 75.9454 233.444 75.9454 231.889 73.7088C230.82 72.2502 230.334 69.333 230.334 64.1792C230.237 60.1923 229.848 53.6771 229.459 49.7875C228.779 43.953 228.099 42.1054 225.863 39.7716C224.405 38.2157 221.781 36.6599 219.935 36.3681C218.185 36.0764 216.728 35.5902 216.728 35.3957C216.728 35.2012 217.797 34.0343 219.157 32.673C220.907 30.9226 221.587 29.1723 221.587 26.5468C221.49 17.6006 210.605 12.7385 201.761 17.795ZM215.853 20.7123C222.462 25.0881 220.129 32.5757 211.48 35.0068C206.134 36.4654 202.441 38.8964 200.011 42.3971L198.165 45.2171L198.456 35.493C198.845 24.6992 200.011 21.8792 204.579 19.8371C208.855 17.9895 212.16 18.184 215.853 20.7123Z" fill="white"/>
<path d="M137.326 26.936C135.577 27.5194 135.771 31.6035 137.423 32.9649C139.27 34.5208 142.866 32.7704 142.866 30.3394C142.866 27.2277 140.339 25.6718 137.326 26.936Z" fill="white"/>
<path d="M102.629 35.0069C91.1611 38.5076 84.4552 52.2186 88.9258 63.0124C93.9796 74.8759 109.627 80.3214 120.22 73.8062C128.87 68.4579 128.287 55.9138 119.151 51.9269C116.138 50.6628 116.236 50.6628 121.775 50.5655C127.023 50.5655 127.315 50.4683 127.315 48.1345C127.315 38.6048 114.097 31.6035 102.629 35.0069ZM116.624 38.6048C118.568 40.3552 119.831 42.5917 120.22 44.9255L120.803 48.6207H109.724C103.601 48.6207 98.0615 48.2317 97.3811 47.7455C96.6036 47.2593 96.3121 46.0924 96.7008 44.6338C98.0615 39.2855 102.726 35.9793 109.044 35.9793C112.737 35.9793 114.292 36.5628 116.624 38.6048ZM117.888 53.2883C126.926 57.2752 127.509 66.9021 119.054 71.6669C111.182 76.14 102.046 73.709 98.353 66.4159C96.3121 62.429 94.7571 52.3159 96.0205 51.0517C97.3811 49.5931 113.126 51.2462 117.888 53.2883Z" fill="white"/>
<path d="M162.011 35.2014C156.569 36.66 152.584 41.1331 152.584 45.7035C152.584 50.76 155.597 54.1635 162.303 56.4C165.218 57.3724 167.745 58.6366 167.94 59.1228C168.037 59.609 165.024 62.9152 161.136 66.5131C156.374 70.889 154.431 73.2228 155.111 73.9035C155.694 74.4869 158.804 75.3621 162.108 75.9455C172.313 77.7931 181.935 74.1952 185.142 67.4855C188.543 60.1924 184.559 54.0662 175.52 52.8993C172.993 52.5104 170.855 51.9269 170.564 51.5379C170.369 51.2462 172.993 48.1345 176.395 44.731C179.894 41.2304 182.712 38.1186 182.712 37.7297C182.712 36.66 172.993 34.0345 169.203 34.1317C167.259 34.229 164.052 34.7152 162.011 35.2014ZM176.784 37.049C178.533 37.6324 179.796 38.5076 179.602 38.7993C179.408 39.1883 176.395 42.3 172.799 45.6062L166.287 51.6352L162.886 50.1766C156.957 47.7455 157.249 40.3552 163.275 37.2435C166.287 35.6876 172.702 35.5904 176.784 37.049ZM177.658 60.8731C179.796 62.3317 180.477 66.1241 179.213 69.5276C177.756 73.2228 166.19 75.5566 159.484 73.4172C157.346 72.7366 157.541 72.4448 163.858 66.0269C170.952 58.9283 173.479 57.9559 177.658 60.8731Z" fill="white"/>
<path d="M251.035 35.1042C244.815 36.9518 241.802 45.1201 245.495 50.3711C246.855 52.4132 246.855 52.6077 244.62 53.3856C240.538 54.9415 237.137 59.998 237.137 64.4711C237.234 70.889 241.705 75.1677 249.868 76.3346C255.7 77.2097 261.822 75.4594 264.252 72.2504C266.001 70.1111 266.293 70.0139 266.293 71.667C266.293 74.487 268.237 75.8484 272.513 75.8484C276.109 75.8484 276.206 75.7511 274.457 74.487C272.805 73.2228 272.513 71.4725 272.124 58.6366C271.833 50.6628 271.152 43.3697 270.472 42.3001C268.237 38.4104 264.641 35.9794 259.587 35.007C256.671 34.5208 253.842 34.4112 253.842 34.4112C253.842 34.4112 253.002 34.4112 251.035 35.1042ZM262.114 38.6049C264.349 40.0635 266.293 44.5366 266.293 48.1346C266.293 50.2739 265.71 50.3711 257.449 51.0518C249.577 51.6352 248.508 51.538 247.341 49.9821C245.884 48.0373 245.495 43.078 246.467 40.3552C248.022 36.2711 256.963 35.2987 262.114 38.6049ZM265.807 59.8035C265.807 68.2635 263.377 72.3477 257.546 73.9035C250.16 75.8484 243.94 71.1808 243.94 63.5959C243.94 58.3449 247.341 54.747 252.978 54.0663C255.214 53.7746 258.129 53.2883 259.49 53.0939C265.515 52.1215 265.807 52.4132 265.807 59.8035Z" fill="white"/>
<path d="M53.4527 36.0765C46.6496 38.7993 40.9155 46.3841 40.8184 52.802C40.8184 59.1227 45.5805 66.2213 51.8977 69.0413L55.5909 70.7917L51.4118 71.4724C41.1099 73.0282 35.959 76.9179 35.959 83.0441C35.959 92.3793 47.913 95.7827 56.8543 88.9758L59.7699 86.8365L63.1715 89.1703C65.018 90.4345 68.128 91.8931 70.0718 92.4765C77.2637 94.7131 84.5527 89.7538 84.5527 82.7524C84.5527 78.3765 82.7062 75.5565 78.8187 73.9034C74.1537 72.0558 69.9746 73.4172 59.7699 80.2241C51.8005 85.5724 49.7596 86.5448 46.1637 86.5448C41.4987 86.5448 38.8746 84.6972 38.8746 81.5855C38.8746 76.3345 43.3452 74.0979 57.8262 71.8613C69.683 70.111 76.389 65.8324 78.8187 58.6365C79.8877 55.2331 79.5962 48.8151 78.2355 45.4117C77.6524 44.0503 77.944 43.7586 79.7905 43.9531C81.7343 44.2448 82.123 43.7586 82.4146 41.0358C82.7062 38.0213 81.4427 36.8544 80.1793 38.8965C79.2074 40.5496 75.3199 39.9662 69.7802 37.4379C64.3377 34.9096 57.8262 34.3262 53.4527 36.0765ZM65.504 37.9241C70.6549 39.8689 73.7649 48.9124 72.4043 58.0531C70.5577 70.6945 55.7852 73.2227 49.8568 61.9427C47.7187 57.7613 47.7187 48.2317 50.0512 43.4669C52.7724 37.7296 59.0896 35.3958 65.504 37.9241ZM77.6524 78.3765C82.8034 84.9889 77.458 92.7682 69.2943 90.5317C65.8927 89.5593 61.2277 86.0586 61.2277 84.4055C61.2277 84.0165 62.7827 81.8772 64.7265 79.7379C67.6421 76.5289 68.9055 75.8482 71.9184 75.8482C74.834 75.8482 76.0974 76.4317 77.6524 78.3765Z" fill="white"/>
<path d="M134.895 38.7019C137.033 40.1606 138.005 45.8978 138.005 57.5668C138.005 68.6523 137.131 73.6116 134.798 75.0702C134.118 75.4592 136.645 75.8481 140.338 75.8481C146.947 75.8481 147.044 75.8481 145.392 74.0006C143.934 72.4447 143.545 69.333 143.156 55.0385L142.573 37.924H138.103C135.478 37.924 134.118 38.313 134.895 38.7019Z" fill="white"/>
<circle cx="156" cy="96" r="3" fill="white"/>
</svg>
