<svg width="256" height="256" viewBox="0 0 256 256" fill="none" xmlns="http://www.w3.org/2000/svg">
<path d="M119 0.550045C67.1999 4.25005 22.6999 38.95 6.4999 88.4C-0.450099 109.75 -1.6001 133.85 3.2999 156C11.1999 191.35 34.3999 222.25 66.4499 240C94.7999 255.7 129.3 259.9 160.85 251.5C204.95 239.75 239.75 204.95 251.5 160.85C263.2 116.9 250.5 69.75 218.3 37.7C195.8 15.3 168 2.75005 136.1 0.550045C127.75 -0.049955 127.45 -0.049955 119 0.550045ZM82.4999 47.3C84.6999 48.3 87.3499 50.65 96.3499 59.65C109.05 72.35 110.15 73.95 110.15 80C110.15 85.3 108.6 88.05 101.8 94.95C94.5499 102.35 93.9499 104.05 96.3499 111.75C101.75 129.15 128.35 155.3 145.1 159.8C148.25 160.6 152.4 160.7 154.3 160C155.05 159.7 158.4 156.8 161.7 153.55C168.7 146.7 170.6 145.7 176.25 145.8C182.1 145.85 183.25 146.65 196.05 159.45C203.4 166.75 207.8 171.55 208.5 173C210.1 176.1 210.4 181.45 209.25 185.05C208.45 187.45 207.3 188.8 198.6 197.6C188.1 208.25 186.85 209.1 180.85 210.05C177 210.7 170.7 209.95 164.65 208.2C137.15 200.25 97.4999 168.75 71.6999 134.3C61.5499 120.8 52.8499 105.2 49.0999 93.85C46.3999 85.7 45.8499 82.5 46.0999 76.65C46.3999 69.3 46.9999 68.35 56.8999 58.35C61.4999 53.7 66.1999 49.25 67.3499 48.45C71.7999 45.35 77.2499 44.95 82.4999 47.3Z" fill="#FFE900"/>
</svg>
