<svg width="103" height="103" viewBox="0 0 103 103" fill="none" xmlns="http://www.w3.org/2000/svg">
<g clip-path="url(#clip0_655_15)">
<path d="M24.8447 0.402217C22.8129 1.2069 22.6318 1.46843 15.4902 13.8606C11.849 20.1975 8.85156 25.428 8.85156 25.4682C8.85156 25.5085 17.7836 25.5286 28.7273 25.5085L48.583 25.4481L48.6434 12.7139L48.6836 -0.000127094L37.2771 0.0199901C26.4742 0.0199901 25.7902 0.0401073 24.8447 0.402217Z" fill="#1C1A1A"/>
<path d="M54.7188 12.7744V25.5488H74.4537C90.1652 25.5488 94.1686 25.4885 94.0881 25.2873C94.0277 25.1666 91.0303 19.9361 87.4293 13.6797C80.348 1.42832 80.1871 1.18691 78.0949 0.402343C77.0891 0.0201167 76.5258 -4.73112e-07 65.8838 -4.73112e-07H54.7188V12.7744Z" fill="#1C1A1A"/>
<path d="M6.63856 64.033C6.63856 99.9623 6.5581 97.7695 7.94618 99.8818C8.34852 100.485 9.11298 101.25 9.71649 101.652C11.8489 103.101 8.71063 103 51.4999 103C94.2892 103 91.1509 103.101 93.2833 101.652C93.8868 101.25 94.6513 100.485 95.0536 99.8818C96.4417 97.7695 96.3612 99.9623 96.3612 64.033V31.5839H51.4999H6.63856V64.033ZM64.8175 54.0347C65.1192 54.2359 65.4813 54.6584 65.6624 54.9601C66.0647 55.624 66.0849 57.173 65.7026 57.8972C65.2601 58.722 49.2669 74.5744 48.6231 74.8158C47.8788 75.0974 46.7522 75.0974 46.2091 74.8158C45.5854 74.4939 37.8604 66.789 37.4983 66.1453C37.096 65.3607 37.1362 63.9927 37.619 63.2082C38.4036 61.9207 40.1337 61.3775 41.4011 62.0414C41.7028 62.2023 43.1714 63.5703 44.66 65.0589L47.3759 67.7949L54.3163 60.8746C58.1386 57.0523 61.478 53.8336 61.7597 53.733C62.5241 53.4111 64.214 53.572 64.8175 54.0347Z" fill="#1C1A1A"/>
</g>
<defs>
<clipPath id="clip0_655_15">
<rect width="103" height="103" fill="white"/>
</clipPath>
</defs>
</svg>
