<svg width="143" height="143" viewBox="0 0 143 143" fill="none" xmlns="http://www.w3.org/2000/svg">
<path d="M44.8551 11.6188C44.7713 11.8702 44.6875 12.5964 44.6875 13.2388C44.6875 21.9249 53.0385 28.5442 61.2498 26.3936C67.1709 24.8575 71.5 19.4112 71.5 13.5181C71.5 10.9485 72.8127 11.172 58.0937 11.172C46.4471 11.172 44.9947 11.2278 44.8551 11.6188Z" fill="#1C1A1A"/>
<path d="M123.673 16.1154C120.936 18.8525 118.617 21.3662 118.506 21.7293C118.143 23.2654 119.763 24.8854 121.271 24.4385C121.634 24.3268 123.142 23.042 124.65 21.5617L127.359 18.8525V58.0937V97.307L124.455 94.4582C122.667 92.6707 121.355 91.6094 120.991 91.6094C119.427 91.6094 118.171 93.0617 118.506 94.4582C118.617 94.8213 120.936 97.335 123.673 100.044C128.141 104.513 128.756 105.016 129.594 105.016C130.432 105.016 131.046 104.513 135.487 100.1C138.28 97.307 140.514 94.8492 140.626 94.4582C140.989 93.0059 139.788 91.6094 138.196 91.6094C137.833 91.6094 136.52 92.6707 134.733 94.4582L131.828 97.307V58.0937V18.8525L134.565 21.5617C136.046 23.042 137.554 24.3268 137.917 24.4385C139.453 24.8854 141.017 23.2934 140.626 21.7293C140.514 21.3383 138.28 18.8805 135.487 16.0875C131.046 11.6746 130.432 11.1719 129.594 11.1719C128.756 11.1719 128.141 11.6746 123.673 16.1154Z" fill="#1C1A1A"/>
<path d="M21.5059 19.5787C10.4457 24.1312 3.01641 27.3432 2.73711 27.7062C2.45781 28.0135 2.23438 28.5441 2.23438 28.8793C2.23438 29.1865 3.79844 35.1914 5.72559 42.1738C9.35645 55.4404 9.49609 55.8594 10.9764 55.8594C11.2836 55.8594 14.9424 54.6025 19.048 53.0664C23.1816 51.5303 26.617 50.2734 26.7008 50.2734C26.7566 50.2734 26.8125 62.2832 26.8125 76.9463V103.647L27.5107 104.317L28.1811 105.016H58.0938H88.0064L88.6768 104.317L89.375 103.647V76.9463C89.375 62.2832 89.4588 50.2734 89.5705 50.2734C89.6822 50.2734 93.1176 51.5303 97.1953 53.0664C101.273 54.6025 104.904 55.8594 105.211 55.8594C106.691 55.8594 106.831 55.4404 110.462 42.1738C112.389 35.1914 113.953 29.1865 113.953 28.8793C113.953 28.5441 113.73 28.0135 113.478 27.7062C113.171 27.3432 105.742 24.1312 94.5979 19.5508C84.4873 15.4172 76.1643 12.0098 76.1084 12.0098C76.0246 12.0098 75.9688 12.6521 75.9688 13.4062C75.9688 14.1883 75.7732 15.7803 75.5219 16.9533C72.6451 30.9182 55.6359 36.0293 45.4975 25.9746C42.1738 22.6789 40.2467 18.1264 40.2188 13.6018C40.2188 12.7359 40.135 12.0098 40.0232 12.0377C39.8836 12.0377 31.5605 15.4451 21.5059 19.5787Z" fill="#1C1A1A"/>
<path d="M11.8143 114.596C7.17793 119.204 6.70312 119.79 6.70312 120.656C6.70312 121.494 7.17793 122.081 11.6188 126.549C14.4117 129.342 16.8695 131.577 17.2605 131.688C18.8246 132.079 20.4166 130.515 19.9697 128.979C19.858 128.616 18.5732 127.108 17.093 125.628L14.3838 122.891H58.0938H101.776L98.927 125.795C96.525 128.225 96.0781 128.812 96.0781 129.566C96.0781 130.767 97.1395 131.828 98.3684 131.828C99.1783 131.828 99.8486 131.27 104.373 126.717C109.01 122.109 109.484 121.522 109.484 120.656C109.484 119.818 109.01 119.232 104.541 114.735C101.804 111.998 99.29 109.68 98.927 109.568C97.5305 109.233 96.0781 110.49 96.0781 112.054C96.0781 112.417 97.1395 113.73 98.927 115.517L101.776 118.422H58.0938H14.3838L17.093 115.685C18.5732 114.204 19.858 112.696 19.9697 112.333C20.3887 110.937 19.1318 109.484 17.5119 109.484C17.093 109.484 15.3055 111.104 11.8143 114.596Z" fill="#1C1A1A"/>
</svg>
