<svg width="381" height="381" viewBox="0 0 381 381" fill="none" xmlns="http://www.w3.org/2000/svg">
<g clip-path="url(#clip0_552_6)">
<g filter="url(#filter0_d_552_6)">
<path d="M174.496 12.3397C139.954 15.6939 108.069 28.412 80.0993 49.935C66.4642 60.417 48.7735 80.1231 38.5646 96.1955C34.1595 103.114 25.5588 120.723 22.4822 129.109C19.0559 138.473 15.35 152.868 13.532 163.979C11.3643 177.606 11.3643 203.461 13.532 217.088C16.6785 236.374 21.6431 251.888 30.1039 269.148C39.3338 287.946 48.9133 301.293 64.2965 316.736C79.7497 332.11 93.1051 341.683 111.915 350.908C129.186 359.363 144.709 364.324 164.008 367.469C177.643 369.635 203.515 369.635 217.15 367.469C236.449 364.324 251.972 359.363 269.243 350.908C288.052 341.683 301.408 332.11 316.861 316.736C332.244 301.293 341.824 287.946 351.053 269.148C357.207 256.64 360.283 248.464 363.64 235.885C368.045 219.114 369.094 209.96 369.094 190.533C369.094 171.107 368.045 161.952 363.64 145.181C360.283 132.603 357.207 124.427 351.053 111.918C341.824 93.1208 332.244 79.7737 316.861 64.3303C301.408 48.9567 288.052 39.3832 269.243 30.159C252.042 21.7036 236.099 16.6722 217.499 13.7373C207.22 12.13 184.286 11.3614 174.496 12.3397ZM207.22 40.3615C241.343 44.0651 272.529 59.229 297.282 83.8966C326.3 112.897 341.614 149.793 341.614 190.533C341.614 231.273 326.3 268.17 297.282 297.17C268.264 326.17 231.344 341.474 190.579 341.474C149.813 341.474 112.893 326.17 83.8752 297.17C54.8569 268.17 39.5436 231.273 39.5436 190.533C39.5436 149.793 54.8569 112.897 83.8752 83.8966C108.279 59.5086 139.814 44.135 173.098 40.3615C180.789 39.5229 199.389 39.4531 207.22 40.3615Z" fill="url(#paint0_linear_552_6)"/>
</g>
<g filter="url(#filter1_d_552_6)">
<rect x="83" y="107.846" width="35.137" height="269.672" rx="17.5685" transform="rotate(-45 83 107.846)" fill="url(#paint1_linear_552_6)"/>
</g>
<g filter="url(#filter2_d_552_6)">
<rect x="273.688" y="83" width="35.137" height="269.672" rx="17.5685" transform="rotate(45 273.688 83)" fill="url(#paint2_linear_552_6)"/>
</g>
</g>
<defs>
<filter id="filter0_d_552_6" x="1.90625" y="-1.09375" width="391.188" height="391.188" filterUnits="userSpaceOnUse" color-interpolation-filters="sRGB">
<feFlood flood-opacity="0" result="BackgroundImageFix"/>
<feColorMatrix in="SourceAlpha" type="matrix" values="0 0 0 0 0 0 0 0 0 0 0 0 0 0 0 0 0 0 127 0" result="hardAlpha"/>
<feOffset dx="7" dy="4"/>
<feGaussianBlur stdDeviation="8.5"/>
<feComposite in2="hardAlpha" operator="out"/>
<feColorMatrix type="matrix" values="0 0 0 0 0.954167 0 0 0 0 0.776851 0 0 0 0 0.776851 0 0 0 0.25 0"/>
<feBlend mode="normal" in2="BackgroundImageFix" result="effect1_dropShadow_552_6"/>
<feBlend mode="normal" in="SourceGraphic" in2="effect1_dropShadow_552_6" result="shape"/>
</filter>
<filter id="filter1_d_552_6" x="84.2773" y="79.2773" width="220.979" height="220.978" filterUnits="userSpaceOnUse" color-interpolation-filters="sRGB">
<feFlood flood-opacity="0" result="BackgroundImageFix"/>
<feColorMatrix in="SourceAlpha" type="matrix" values="0 0 0 0 0 0 0 0 0 0 0 0 0 0 0 0 0 0 127 0" result="hardAlpha"/>
<feOffset dx="4" dy="-1"/>
<feGaussianBlur stdDeviation="5"/>
<feComposite in2="hardAlpha" operator="out"/>
<feColorMatrix type="matrix" values="0 0 0 0 0.983333 0 0 0 0 0.759625 0 0 0 0 0.759625 0 0 0 0.25 0"/>
<feBlend mode="normal" in2="BackgroundImageFix" result="effect1_dropShadow_552_6"/>
<feBlend mode="normal" in="SourceGraphic" in2="effect1_dropShadow_552_6" result="shape"/>
</filter>
<filter id="filter2_d_552_6" x="84.2773" y="79.2773" width="220.979" height="220.978" filterUnits="userSpaceOnUse" color-interpolation-filters="sRGB">
<feFlood flood-opacity="0" result="BackgroundImageFix"/>
<feColorMatrix in="SourceAlpha" type="matrix" values="0 0 0 0 0 0 0 0 0 0 0 0 0 0 0 0 0 0 127 0" result="hardAlpha"/>
<feOffset dx="4" dy="-1"/>
<feGaussianBlur stdDeviation="5"/>
<feComposite in2="hardAlpha" operator="out"/>
<feColorMatrix type="matrix" values="0 0 0 0 0.983333 0 0 0 0 0.759625 0 0 0 0 0.759625 0 0 0 0.25 0"/>
<feBlend mode="normal" in2="BackgroundImageFix" result="effect1_dropShadow_552_6"/>
<feBlend mode="normal" in="SourceGraphic" in2="effect1_dropShadow_552_6" result="shape"/>
</filter>
<linearGradient id="paint0_linear_552_6" x1="190.5" y1="369.094" x2="194.071" y2="10.2429" gradientUnits="userSpaceOnUse">
<stop stop-color="#E9CEAE"/>
<stop offset="1" stop-color="#FCFFFE"/>
</linearGradient>
<linearGradient id="paint1_linear_552_6" x1="100.569" y1="107.846" x2="100.569" y2="377.517" gradientUnits="userSpaceOnUse">
<stop stop-color="#FCFDFB"/>
<stop offset="1" stop-color="#E9CFB1"/>
</linearGradient>
<linearGradient id="paint2_linear_552_6" x1="291.256" y1="83" x2="291.256" y2="352.672" gradientUnits="userSpaceOnUse">
<stop stop-color="#FCFDFB"/>
<stop offset="1" stop-color="#E9CFB1"/>
</linearGradient>
<clipPath id="clip0_552_6">
<rect width="381" height="381" fill="white"/>
</clipPath>
</defs>
</svg>
