<svg width="62" height="62" viewBox="0 0 62 62" fill="none" xmlns="http://www.w3.org/2000/svg">
<path d="M28.8199 0.0730535C28.5898 0.0972723 27.8754 0.182038 27.2457 0.242585C23.2496 0.678522 18.8297 2.18008 15.2574 4.31133C10.7164 7.02383 7.02305 10.7172 4.31055 15.2582C2.19141 18.7941 0.786719 22.9113 0.217578 27.2465C0.0238281 28.7359 0.0238281 33.2648 0.217578 34.7543C1.21055 42.2984 4.52852 48.6801 10.1473 53.8992C13.2473 56.7934 17.1102 59.0457 21.3121 60.4262C24.6301 61.5281 27.2578 61.9277 30.9996 61.9277C33.7606 61.9277 34.9836 61.8188 37.4176 61.3223C45.7609 59.6148 53.2082 54.2625 57.6887 46.7426C59.8078 43.2066 61.2125 39.0895 61.7816 34.7543C61.9754 33.2648 61.9754 28.7359 61.7816 27.2465C61.2125 22.9113 59.8078 18.7941 57.6887 15.2582C54.9762 10.7172 51.2828 7.02383 46.7418 4.31133C43.2422 2.21641 39.0645 0.787507 34.8746 0.242585C33.809 0.0972723 29.5707 -0.0117121 28.8199 0.0730535ZM33.482 3.7543C40.5418 4.40821 47.3594 7.95626 51.852 13.3207C57.7492 20.3563 59.7473 29.5109 57.3254 38.3508C56.393 41.7535 54.7461 45.0109 52.5059 47.8566C52.0941 48.3773 51.743 48.8012 51.7066 48.8012C51.6703 48.8012 51.4766 48.2805 51.2828 47.6387C50.2535 44.1996 47.8559 40.5063 45.0828 38.0723C43.3391 36.5465 40.9535 35.0813 38.8102 34.2094L38.3258 34.0156L38.7496 33.7008C39.5125 33.1316 41.3652 31.182 41.8133 30.4797C43.5328 27.8035 44.2594 24.9094 43.9566 21.9547C43.5086 17.5227 40.9172 13.7082 36.9938 11.6617C28.832 7.42344 18.975 12.7637 18.0426 21.9547C17.8004 24.3402 18.2605 26.8469 19.3262 28.966C20.1859 30.6734 21.6148 32.4414 23.0195 33.507C23.3465 33.7492 23.6129 33.9914 23.6129 34.0277C23.6129 34.0641 23.2133 34.2457 22.7289 34.4395C19.4594 35.7594 16.1898 38.3266 13.9012 41.3539C12.5813 43.1098 11.3219 45.5801 10.7043 47.6508C10.5227 48.2805 10.3289 48.8012 10.2926 48.8012C10.1957 48.8012 8.81524 47.009 8.125 45.9797C7.36211 44.8414 6.01797 42.2258 5.47305 40.8332C4.52852 38.4355 3.93516 35.6625 3.7293 32.6594C3.09961 23.977 7.01094 15.1613 13.8891 9.67579C19.4473 5.24376 26.4949 3.11251 33.482 3.7543ZM33.5426 14.1684C36.6547 15.0523 39.0887 17.4863 40.0332 20.6469C40.457 22.0879 40.4813 24.1465 40.1059 25.5633C38.9797 29.7652 35.3227 32.5746 30.9996 32.5746C26.6766 32.5746 23.0195 29.7652 21.8934 25.5633C21.518 24.1465 21.5422 22.0879 21.966 20.6469C23.0316 17.0625 25.7926 14.6285 29.6676 13.8777C30.3699 13.7445 32.6586 13.9141 33.5426 14.1684ZM33.482 36.5828C37.2359 37.0672 40.5539 38.7383 43.4238 41.5961C45.5793 43.7516 46.9356 45.9313 47.8074 48.6801C48.1223 49.6609 48.6188 51.9617 48.5219 52.0102C48.5098 52.0223 48.1465 52.3008 47.7106 52.6398C43.9809 55.5461 39.4883 57.4109 34.4508 58.1375C33.0461 58.3434 28.9531 58.3434 27.5484 58.1375C22.5109 57.4109 18.0184 55.5461 14.2887 52.6398C13.8527 52.3008 13.4895 52.0223 13.4773 52.0102C13.4531 51.998 13.5258 51.5379 13.6227 50.993C14.7246 44.7324 19.2051 39.4891 25.2598 37.382C27.9359 36.4496 30.4789 36.1953 33.482 36.5828Z" fill="url(#paint0_linear_546_7)" fill-opacity="0.95"/>
<defs>
<linearGradient id="paint0_linear_546_7" x1="30.9996" y1="61.9277" x2="30.9996" y2="0.0433235" gradientUnits="userSpaceOnUse">
<stop stop-color="#EA5825"/>
<stop offset="0.602083" stop-color="#D31217"/>
</linearGradient>
</defs>
</svg>
