<svg width="101" height="33" viewBox="0 0 101 33" fill="none" xmlns="http://www.w3.org/2000/svg">
<path d="M69.1973 0.855963C66.1552 2.56635 65.9524 3.3401 65.709 14.0097C65.5062 22.5617 65.4251 23.539 64.7355 24.3128L63.9648 25.168H66.723C69.4407 25.168 69.4812 25.168 68.7917 24.3942C68.1427 23.7019 68.0616 22.9282 68.2238 18.5707C68.3455 14.3355 68.5077 13.2767 69.2784 11.8106C70.9414 8.63417 74.8759 8.02332 77.3096 10.5482C78.4859 11.7699 78.4859 11.7699 78.6887 18.3671L78.8915 24.9644L80.6762 25.0865C82.4203 25.2087 82.4203 25.2087 81.7714 24.272C81.3252 23.6612 81.1224 22.4395 81.1224 20.2811C81.0818 18.6115 80.9196 15.883 80.7573 14.254C80.4734 11.8106 80.1895 11.0369 79.2565 10.0595C78.6481 9.40792 77.553 8.75635 76.7823 8.63417C76.0522 8.512 75.4438 8.30839 75.4438 8.22694C75.4438 8.14549 75.8899 7.65681 76.4578 7.08668C77.1879 6.35365 77.4718 5.62063 77.4718 4.52109C77.4313 0.774515 72.8884 -1.26167 69.1973 0.855963ZM75.0787 2.07767C77.8369 3.91023 76.8634 7.04595 73.2534 8.06404C71.0226 8.6749 69.4812 9.69299 68.4672 11.159L67.6965 12.34L67.8182 8.26766C67.9804 3.74734 68.4672 2.56635 70.3736 1.71116C72.1583 0.937408 73.5374 1.01886 75.0787 2.07767Z" fill="url(#paint0_linear_681_59)"/>
<path d="M42.306 4.68441C41.5759 4.92875 41.657 6.63914 42.3466 7.20927C43.1173 7.86085 44.618 7.12782 44.618 6.10973C44.618 4.80658 43.5634 4.155 42.306 4.68441Z" fill="url(#paint1_linear_681_59)"/>
<path d="M27.8259 8.06506C23.0396 9.53111 20.2409 15.2731 22.1067 19.7935C24.2159 24.7617 30.7463 27.0423 35.1675 24.3138C38.7775 22.074 38.5341 16.8206 34.7213 15.151C33.4639 14.6216 33.5045 14.6216 35.8165 14.5808C38.0068 14.5808 38.1285 14.5401 38.1285 13.5628C38.1285 9.57184 32.6121 6.63974 27.8259 8.06506ZM33.6667 9.57184C34.478 10.3049 35.0053 11.2415 35.1675 12.2189L35.4109 13.7664H30.7869C28.2315 13.7664 25.9195 13.6035 25.6355 13.3999C25.3111 13.1962 25.1894 12.7076 25.3516 12.0967C25.9195 9.8569 27.8664 8.4723 30.5029 8.4723C32.0443 8.4723 32.6933 8.71664 33.6667 9.57184ZM34.194 15.7211C37.9663 17.3908 38.2096 21.4224 34.6808 23.4179C31.3953 25.2912 27.5825 24.2731 26.0412 21.2188C25.1894 19.5491 24.5404 15.3139 25.0677 14.7845C25.6355 14.1736 32.2065 14.8659 34.194 15.7211Z" fill="url(#paint2_linear_681_59)"/>
<path d="M52.6103 8.14501C50.3388 8.75587 48.6758 10.6292 48.6758 12.5432C48.6758 14.6608 49.9332 16.0861 52.7319 17.0228C53.9488 17.43 55.0034 17.9594 55.0845 18.163C55.1251 18.3666 53.8677 19.7512 52.2452 21.258C50.2577 23.0906 49.4465 24.068 49.7304 24.353C49.9738 24.5974 51.2717 24.9639 52.6508 25.2082C56.9098 25.982 60.9254 24.4752 62.2639 21.6653C63.6836 18.611 62.0205 16.0454 58.2483 15.5567C57.1937 15.3938 56.3014 15.1495 56.1797 14.9866C56.0985 14.8644 57.1937 13.5613 58.6134 12.1359C60.0736 10.6699 61.2499 9.36672 61.2499 9.20383C61.2499 8.75587 57.1937 7.65633 55.6118 7.69705C54.8006 7.73778 53.462 7.94139 52.6103 8.14501ZM58.7756 8.91876C59.5057 9.1631 60.033 9.52962 59.9519 9.65179C59.8708 9.81468 58.6134 11.1178 57.1126 12.5024L54.395 15.0273L52.9753 14.4165C50.5011 13.3984 50.6227 10.3034 53.1376 9.00021C54.395 8.34863 57.072 8.30791 58.7756 8.91876ZM59.1407 18.896C60.033 19.5069 60.3169 21.0951 59.7896 22.5205C59.1812 24.068 54.3544 25.0453 51.5557 24.1494C50.6633 23.8643 50.7444 23.7422 53.3809 21.0544C56.3419 18.0816 57.3965 17.6743 59.1407 18.896Z" fill="url(#paint3_linear_681_59)"/>
<path d="M89.7652 8.10497C87.1692 8.87872 85.9118 12.2995 87.4531 14.4986C88.021 15.3538 88.021 15.4352 87.0881 15.761C85.3845 16.4126 83.9648 18.5302 83.9648 20.4035C84.0054 23.0913 85.8712 24.8831 89.2784 25.3718C91.7121 25.7383 94.2675 25.0053 95.2815 23.6614C96.0116 22.7655 96.1333 22.7248 96.1333 23.4171C96.1333 24.598 96.9446 25.1682 98.7293 25.1682C100.23 25.1682 100.271 25.1275 99.5405 24.598C98.8509 24.0686 98.7293 23.3356 98.567 17.9601C98.4453 14.6208 98.1614 11.5665 97.8775 11.1185C96.9446 9.48958 95.4438 8.47149 93.3346 8.06425C92.1177 7.86063 90.9371 7.81475 90.9371 7.81475C90.9371 7.81475 90.5862 7.81475 89.7652 8.10497ZM94.3892 9.57102C95.3221 10.1819 96.1333 12.0552 96.1333 13.5619C96.1333 14.4579 95.89 14.4986 92.4422 14.7836C89.1567 15.028 88.7105 14.9873 88.2238 14.3357C87.6154 13.5212 87.4531 11.4443 87.8588 10.304C88.5077 8.59366 92.2394 8.18642 94.3892 9.57102ZM95.9305 18.4488C95.9305 21.9917 94.9165 23.7021 92.4828 24.3537C89.4001 25.1682 86.8042 23.2134 86.8042 20.037C86.8042 17.8379 88.2238 16.3311 90.5764 16.0461C91.5093 15.9239 92.7261 15.7203 93.294 15.6388C95.8088 15.2316 95.9305 15.3538 95.9305 18.4488Z" fill="url(#paint4_linear_681_59)"/>
<path d="M7.30108 8.51247C4.46177 9.65273 2.06864 12.8292 2.02808 15.5169C2.02808 18.164 4.01559 21.1368 6.65209 22.3178L8.19343 23.0508L6.44929 23.3359C2.14976 23.9874 0 25.6164 0 28.182C0 32.0914 4.98907 33.5168 8.72073 30.6661L9.93758 29.7702L11.3572 30.7476C12.1279 31.277 13.4259 31.8878 14.2371 32.1322C17.2387 33.0688 20.2808 30.9919 20.2808 28.0598C20.2808 26.2272 19.5101 25.0463 17.8876 24.354C15.9407 23.5802 14.1965 24.1503 9.93758 27.001C6.61153 29.2408 5.75974 29.648 4.25896 29.648C2.31201 29.648 1.21685 28.8743 1.21685 27.5711C1.21685 25.372 3.08268 24.4354 9.12635 23.4988C14.0749 22.7657 16.8736 20.9739 17.8876 17.9603C18.3338 16.535 18.2121 13.8473 17.6443 12.4219C17.4009 11.8518 17.5226 11.7296 18.2933 11.8111C19.1045 11.9333 19.2667 11.7296 19.3884 10.5894C19.5101 9.32694 18.9828 8.83825 18.4555 9.69345C18.0499 10.3858 16.4274 10.1414 14.1154 9.0826C11.844 8.02378 9.12635 7.77944 7.30108 8.51247ZM12.3307 9.28621C14.4805 10.1007 15.7784 13.888 15.2106 17.716C14.4399 23.0101 8.27456 24.0689 5.8003 19.345C4.90795 17.5938 4.90795 13.6029 5.88142 11.6075C7.01715 9.20477 9.65365 8.2274 12.3307 9.28621ZM17.4009 26.2272C19.5507 28.9965 17.3198 32.2543 13.9126 31.3177C12.493 30.9105 10.546 29.4444 10.546 28.7521C10.546 28.5892 11.195 27.6933 12.0062 26.7974C13.2231 25.4535 13.7504 25.1684 15.0078 25.1684C16.2246 25.1684 16.7519 25.4128 17.4009 26.2272Z" fill="url(#paint5_linear_681_59)"/>
<path d="M41.29 9.61154C42.1824 10.2224 42.588 12.6251 42.588 17.5119C42.588 22.1544 42.223 24.2313 41.2495 24.8422C40.9656 25.0051 42.0202 25.168 43.5615 25.168C46.3197 25.168 46.3602 25.168 45.6707 24.3942C45.0623 23.7426 44.9 22.4395 44.7378 16.4531L44.4944 9.28575H42.6286C41.5334 9.28575 40.9656 9.44865 41.29 9.61154Z" fill="url(#paint6_linear_681_59)"/>
<defs>
<linearGradient id="paint0_linear_681_59" x1="72.2481" y1="20.6108" x2="59.372" y2="12.1689" gradientUnits="userSpaceOnUse">
<stop stop-color="#690502"/>
<stop offset="0.618494" stop-color="#EA0000"/>
<stop offset="0.768065" stop-color="#FFE6E6"/>
<stop offset="0.881293" stop-color="#EA0000"/>
<stop offset="1" stop-color="#EA0000"/>
</linearGradient>
<linearGradient id="paint1_linear_681_59" x1="43.0784" y1="6.92078" x2="41.4461" y2="5.5069" gradientUnits="userSpaceOnUse">
<stop stop-color="#690502"/>
<stop offset="0.618494" stop-color="#EA0000"/>
<stop offset="0.768065" stop-color="#FFE6E6"/>
<stop offset="0.881293" stop-color="#EA0000"/>
<stop offset="1" stop-color="#EA0000"/>
</linearGradient>
<linearGradient id="paint2_linear_681_59" x1="29.0787" y1="22.2608" x2="19.2951" y2="13.9798" gradientUnits="userSpaceOnUse">
<stop stop-color="#690502"/>
<stop offset="0.618494" stop-color="#EA0000"/>
<stop offset="0.768065" stop-color="#FFE6E6"/>
<stop offset="0.881293" stop-color="#EA0000"/>
<stop offset="1" stop-color="#EA0000"/>
</linearGradient>
<linearGradient id="paint3_linear_681_59" x1="55.0872" y1="22.2026" x2="45.7108" y2="15.4425" gradientUnits="userSpaceOnUse">
<stop stop-color="#690502"/>
<stop offset="0.618494" stop-color="#EA0000"/>
<stop offset="0.768065" stop-color="#FFE6E6"/>
<stop offset="0.881293" stop-color="#EA0000"/>
<stop offset="1" stop-color="#EA0000"/>
</linearGradient>
<linearGradient id="paint4_linear_681_59" x1="91.262" y1="22.2697" x2="81.5974" y2="14.3107" gradientUnits="userSpaceOnUse">
<stop stop-color="#690502"/>
<stop offset="0.618494" stop-color="#EA0000"/>
<stop offset="0.768065" stop-color="#FFE6E6"/>
<stop offset="0.881293" stop-color="#EA0000"/>
<stop offset="1" stop-color="#EA0000"/>
</linearGradient>
<linearGradient id="paint5_linear_681_59" x1="9.22768" y1="27.965" x2="-3.80516" y2="18.0935" gradientUnits="userSpaceOnUse">
<stop stop-color="#690502"/>
<stop offset="0.618494" stop-color="#EA0000"/>
<stop offset="0.768065" stop-color="#FFE6E6"/>
<stop offset="0.881293" stop-color="#EA0000"/>
<stop offset="1" stop-color="#EA0000"/>
</linearGradient>
<linearGradient id="paint6_linear_681_59" x1="43.4033" y1="22.2921" x2="38.8522" y2="21.034" gradientUnits="userSpaceOnUse">
<stop stop-color="#690502"/>
<stop offset="0.618494" stop-color="#EA0000"/>
<stop offset="0.768065" stop-color="#FFE6E6"/>
<stop offset="0.881293" stop-color="#EA0000"/>
<stop offset="1" stop-color="#EA0000"/>
</linearGradient>
</defs>
</svg>
